<?xml version="1.0" encoding="utf-8"?>
<!-- Generator: Adobe Illustrator 22.0.0, SVG Export Plug-In . SVG Version: 6.00 Build 0)  -->
<svg version="1.1" id="Layer_1" xmlns="http://www.w3.org/2000/svg" xmlns:xlink="http://www.w3.org/1999/xlink" x="0px" y="0px"
	 viewBox="0 0 48 48" style="enable-background:new 0 0 48 48;" xml:space="preserve">
<style type="text/css">
	.st0{clip-path:url(#SVGID_2_);}
	.st1{fill:none;stroke:#333333;stroke-width:1.5;stroke-miterlimit:10;}
</style>
<g>
	<defs>
		<rect id="SVGID_1_" width="48" height="48"/>
	</defs>
	<clipPath id="SVGID_2_">
		<use xlink:href="#SVGID_1_"  style="overflow:visible;"/>
	</clipPath>
	<g class="st0">
		<path class="st1" d="M38.3,38.5c-7.7,7.7-20.2,7.7-27.9,0c-6.6-6.6-7.5-16.6-2.9-24.3l6.3-2c2.8-0.9,4.8,2.5,2.8,4.6
			c-3.1,3.1-0.9,8.4,3.5,8.4h1c1.4,0,2.7,1,3.1,2.4l0.5,2c-0.5-0.3-1.1-0.4-1.6-0.2L16.8,31c-1.2,0.3-1.9,1.5-1.6,2.7
			c0.3,1.2,1.5,1.9,2.7,1.6l4.1-1l1,4.1c0.3,1.1,1.3,1.8,2.4,1.6c8-0.9,11.7-6.6,12.7-9.2c0.3-0.7,0.1-1.5-0.3-2.1
			c-0.5-0.6-1.2-0.9-1.9-0.9l-3.2,0.2l-1.1-4.4c-0.3-1.2-1.5-1.9-2.7-1.6c-1.2,0.3-1.9,1.5-1.6,2.7l1.6,6.2c0.3,1,1.2,1.7,2.3,1.7
			l0.5,0c-0.8,0.8-1.9,1.6-3.3,2.2l-2-7.6c-0.6-2.3-2.8-4-5.2-4h-1c-2.5,0-3.7-3-1.9-4.7c3.7-3.7-0.1-9.8-5-8.2l-3.3,1.1
			c0.2-0.2,0.4-0.4,0.6-0.6c7.7-7.7,20.2-7.7,27.9,0C46,18.3,46,30.8,38.3,38.5z M34.6,26.6c1.7,1.7,4.5,1.7,6.2,0
			c1.7-1.7,1.7-4.5,0-6.2c-1.7-1.7-4.5-1.7-6.2,0C32.9,22.1,32.9,24.9,34.6,26.6z"/>
	</g>
</g>
</svg>
