<?xml version="1.0" encoding="utf-8"?>
<!-- Generator: Adobe Illustrator 22.0.0, SVG Export Plug-In . SVG Version: 6.00 Build 0)  -->
<svg version="1.1" id="Layer_1" xmlns="http://www.w3.org/2000/svg" xmlns:xlink="http://www.w3.org/1999/xlink" x="0px" y="0px"
	 viewBox="0 0 241.5 46.8" style="enable-background:new 0 0 241.5 46.8;" xml:space="preserve">
<style type="text/css">
	.st0{fill:#D1A3B6;}
</style>
<g id="Y4ArO6_1_">
	<path class="st0" d="M211.8,26.9c0.8-1.2,1.6-2.4,2.4-3.6c0.2-0.4,0.5-0.8,0.8-1c0.9-0.7,1.8-1.6,3.1-1c1.3,0.6,1.5,1.7,1.5,3
		c0,1.3-0.1,2.5,0,3.8c0.1,1.4,1,1.8,2.1,1.1c1.3-0.8,2.1-2.1,2.7-3.4c0.9-1.8,2-3.4,3.8-4.4c1.7-0.9,3.3-0.9,5,0.1
		c0.5,0.3,0.9,0.7,0.7,1.3c-0.3,0.7-0.9,0.5-1.4,0.3c-3.5-1-5.8,0.7-5.6,4.3c0,0.7,0.1,1.5,0.9,1.7c0.8,0.2,1.5,0.1,2.1-0.6
		c0.7-0.8,1.1-1.7,1.5-2.7c0.2-0.6,0.4-1.3,1.2-1.1c0.7,0.1,0.9,0.8,0.9,1.4c0,0.8-0.1,1.6,0.5,2.4c0.8,1.1,1.7,1.3,2.8,0.4
		c1.3-1.1,2.2-2.4,2.9-3.9c0.3-0.7,0.8-1.4,1.6-0.8c0.8,0.5,0.3,1.2,0.1,1.7c-0.7,1.5-1.8,2.8-2.9,4c-1.5,1.6-4.3,2.4-5.8,0.1
		c-0.5-0.8-0.9-0.5-1.5,0c-2.3,2-3.4,1.9-5.6-0.3c-0.6-0.6-0.9-0.6-1.4,0c-1.3,1.2-2.7,2.4-4.7,1.5c-2-1-1.7-2.9-1.7-4.6
		c0-0.7,0-1.3,0-2c0-0.5,0.1-1.1-0.5-1.2c-0.6-0.2-0.9,0.3-1.2,0.7c-1.2,1.6-2.3,3.3-3.2,5.2c-0.2,0.3-0.3,0.7-0.5,1
		c-0.5,0.7-1.1,1.5-2.2,1.1c-1-0.4-1-1.3-0.9-2.2c0.2-2.1,0.3-4.1,0.5-6.3c-0.9,0.2-1.2,0.8-1.4,1.4c-0.9,2.5-2.4,4.3-5.2,4.5
		c-1,0.1-1.7,0.5-2.4,1.2c-2.3,2.5-5.5,2.3-7.6-0.4c-0.6-0.8-0.9-0.7-1.6-0.1c-0.8,0.8-1.7,1.8-2.9,2c-3,0.5-5.3-2.1-4.7-5.4
		c0.1-0.7,0.3-1.4,0.4-2.1c0.1-0.6-0.1-1.2-0.9-1.3c-0.7-0.1-1.1,0.1-1.4,1c-0.7,2.4-1.7,4.6-3.6,6.3c-2.4,2.3-5.1,2-6.8-0.9
		c-0.8-1.3-1.2-1.7-2.2-0.2c-0.5,0.8-1.3,1.3-2,1.9c-1.7,1.2-3.1,1.1-4.5-0.5c-0.7-0.8-1.2-0.8-2-0.1c-2.2,1.9-3.3,1.8-5.3-0.3
		c-0.6-0.7-1-0.6-1.6,0c-0.7,0.7-1.5,1.5-2.6,1.7c-2.5,0.5-4.3-1.6-4-4.6c0.1-0.8,0.2-1.5,0.2-2.3c0-0.4,0.1-0.9-0.4-1.1
		c-0.5-0.2-1,0.1-1.3,0.4c-1.2,1.2-1.7,2.8-2.5,4.2c-0.5,0.9-1,1.8-1.5,2.7c-0.3,0.6-0.8,1.1-1.6,0.9c-0.7-0.2-1.1-0.9-1.1-1.6
		c0-0.8,0.1-1.6,0.1-2.5c0.1-1,0.1-2.1,0.2-3.1c0-0.4,0-0.8-0.4-1c-0.5-0.2-0.8,0.2-1.1,0.5c-1.4,1.8-2.3,4-3.5,5.9
		c-0.5,0.8-0.9,1.8-2,1.5c-1.1-0.3-1.2-1.3-1.2-2.3c0.1-1.7,0.3-3.5,0.4-5.2c0-0.4,0.3-1-0.3-1.1c-0.6-0.1-0.6,0.5-0.8,0.9
		c-1.2,2.5-2.5,5-4.6,6.9c-2.3,2.1-4.7,1.8-6.2-0.9c-0.5-1-0.8-1-1.6-0.2c-2.8,2.9-4.8,2.8-7.3-0.4c-1-1.2-1.4-1.3-2.4,0
		c-1.9,2.7-4.9,4-7.7-0.3c-0.7-1.1-1.3-1-2,0c-0.9,1.3-2.1,2.4-3.7,2.8c-2.3,0.6-4.5-0.1-5.7-2.2c-0.8-1.5-1.3-0.9-2-0.1
		c-0.8,0.9-1.8,1.8-3,2.1c-2.6,0.6-4.6-1.1-4.8-4c-0.1-1.2,0.3-2.3,0.4-3.4c0-0.7,0.1-1.4-0.9-1.4c-0.8-0.1-1.2,0.3-1.4,1.1
		c-0.8,3-2.5,5-5.8,4.9c-0.8,0-1.1,0.6-1.5,1.1c-2,2.3-4.8,2.6-6.9,0.7C61.2,28.1,62,23,65,21.8c0.5-0.2,1.1-0.5,1.5,0.1
		c0.3,0.6-0.2,0.9-0.6,1.1c-1.5,1-2.2,2.3-2,4c0.2,2.2,2.6,3.4,4.6,2.3c1.2-0.7,1.3-1.4,0.3-2.4c-1.3-1.2-1.8-2.7-1.4-4.5
		c0.2-0.9,0.6-1.5,1.5-1.7c1-0.1,1.7,0.2,2.2,1.1c0.7,1.2,1,2.4,0.9,3.8c-0.1,1.2,0.5,1.4,1.5,1.1c1.2-0.4,2.7-2.2,2.7-3.4
		c0-0.5-0.2-0.8-0.7-0.9c-1.2-0.3-1.4-1.3-1.1-2.2c0.4-1.2,0.8-2.5,2.3-2.8c1-0.2,1.4,0.6,1.5,1.5c0.1,1,0.6,1.6,1.7,1.6
		c1.6,0,2.2,1,2.2,2.4c0,1.2-0.3,2.5-0.3,3.7c-0.1,1,0.2,2,1.2,2.5c1.1,0.5,1.9,0.1,2.7-0.6c1.8-1.6,2.8-3.8,3.7-5.9
		c0.8-1.8,2.7-2.7,4.3-2c1.6,0.7,2.1,2.7,1.2,4.5c-0.4,0.7-0.9,1.4-1.4,2c-0.5,0.5-1.7,0.7-1.3,1.6c0.4,1,1.6,0.7,2.5,0.6
		c2.3-0.2,4.8-3.6,4.5-6c-0.5-3.5-0.5-7.1,0-10.6c0.2-1.3-0.2-1.9-1.7-1.9c-1.5,0.1-3,0-4.4,0c-0.7,0-1.6,0.2-1.7-0.8
		c0-1.1,1-0.9,1.7-1c1.7,0,3.4-0.1,5.1,0c1,0,1.7-0.2,2.1-1.2c0.1-0.4,0.4-0.7,0.6-1c1.4-1.7,3.3-1.5,4,0.6c0.4,1,0.7,1.7,1.9,1.6
		c1.3-0.2,2.9,0.7,3.5-1.3c0.3-1,1.1-2.1,2.5-1.9c1.4,0.1,1.8,1.2,2,2.3c0.2,1,1,1.1,1.8,1.1c2.7,0,5.4,0,8,0c0.7,0,1.6-0.2,1.6,0.9
		c0,1-0.9,0.9-1.6,0.9c-2.6,0-5.1,0-7.7,0c-1.1,0-1.6,0.4-1.8,1.6c-0.4,4.1-1.5,8-3.2,11.8c-0.6,1.3,0.4,3.8,1.8,4.7
		c1.5,0.9,2.4-0.1,3.3-1.1c1.5-1.7,2.7-3.6,2.5-6c0-0.3,0-0.6,0.1-0.8c0.2-0.6,0.4-1.1,1.1-1c0.6,0.1,0.7,0.6,0.7,1.1
		c0,1.4-0.1,2.8-0.1,4.3c0,0.2-0.1,0.3-0.1,0.5c0.1,1.4-0.3,3,1.4,3.7c1.6,0.6,2.5-0.7,3.4-1.7c1.3-1.5,2-3.4,2.9-5.1
		c0.4-0.7,0.8-1.4,1.4-2c0.6-0.6,1.2-1,2-0.6c0.8,0.3,1.1,1,1.2,1.8c0,1.7,0,3.4,0,5.3c0.8-0.6,1.1-1.3,1.4-1.9c0.6-1.1,1.2-2.1,2-3
		c0.8-0.9,1.8-1.7,3-1.1c1.3,0.6,1.7,1.9,1.7,3.3c0,0.7-0.5,1.4,0.2,2.3c0.4-0.7,0.8-1.3,1.2-2c0.7-1.1,1.4-2.2,2.4-3.1
		c0.8-0.7,1.7-1,2.7-0.5c1,0.4,1.4,1.3,1.5,2.4c0,1.3,0,2.6,0,3.9c0,0.7,0.1,1.3,0.7,1.7c0.8,0.4,1.4,0,2-0.4c1.1-0.8,1.9-2,2.5-3.2
		c0.7-1.5,1.7-2.8,2.9-3.9c1.5-1.2,3.9-1.5,5.4-0.6c0.6,0.4,1.2,0.8,0.9,1.6c-0.3,0.8-1.1,0.5-1.7,0.2c-1.7-0.9-3-0.2-4.1,0.9
		c-1.3,1.3-1.2,3-0.9,4.6c0.2,1,1.7,1.1,2.6,0.2c0.8-0.7,1.2-1.7,1.4-2.7c0.1-0.7,0.4-1.3,1.2-1.3c0.8,0,0.8,0.8,1,1.3
		c0.1,0.4,0.2,0.8,0.2,1.1c0,1,0.3,1.9,1.3,2.2c1,0.3,1.7-0.2,2.3-0.9c1.5-1.7,2.7-3.3,2.3-6c-0.5-3.2-0.3-6.6,0-9.8
		c0.2-1.3-0.3-1.7-1.5-1.7c-1.6,0-3.3,0-4.9,0c-0.6,0-1.3-0.1-1.3-0.9c0-0.8,0.7-0.9,1.3-0.9c1.9,0,3.7,0,5.6,0
		c0.9,0,1.6-0.3,1.9-1.2c0.2-0.4,0.4-0.8,0.7-1.1c1.5-1.7,3.2-1.5,3.8,0.6c0.4,1.5,1.2,1.7,2.5,1.6c2.5-0.1,5,0,7.6,0
		c0.7,0,1.6-0.1,1.6,0.9c0,1-0.9,0.9-1.6,0.9c-2.7,0-5.4,0-8,0c-1.1,0-1.7,0.4-1.7,1.6c0,4.1-1.4,7.9-3.1,11.6
		c-0.7,1.5,0.8,4.8,2.5,5.2c0.7,0.2,1.3-0.1,1.8-0.6c1.6-1.4,2.6-3.1,3.3-5c0.2-0.5,0.2-1.1-0.5-1.3c-1.6-0.5-1.4-1.6-0.9-2.7
		c0.2-0.4,0.4-0.9,0.7-1.3c0.4-0.5,0.8-1.1,1.6-1c0.9,0.1,1.2,0.8,1.3,1.5c0.2,1.1,0.6,1.7,1.9,1.7c1.5,0,2.2,1.1,2.2,2.7
		c0,1.2-0.7,2.3-0.6,3.5c0.1,1.1,0.4,2,1.4,2.4c1,0.4,1.8,0,2.6-0.6c1.7-1.5,2.7-3.4,3.9-5.2c0.5-0.7,1.1-1.4,1.9-1.7
		c0.4-0.1,0.9-0.4,1.2,0.1c0.3,0.5-0.1,0.9-0.5,1.1c-1,0.6-1.6,1.5-2,2.5c-0.6,1.5-0.2,2.7,1,3.7c1.1,0.9,2.5,0.8,3.7,0.1
		c1-0.5,1.2-1.2,0.2-2.1c-1.3-1.1-1.8-2.5-1.7-4.2c0.1-1,0.5-1.7,1.4-2c0.9-0.3,1.7,0,2.3,0.7c0.8,1,1.3,2.1,1.2,3.5
		c0,0.5-0.2,1.2,0.4,1.5c0.6,0.3,1.2-0.1,1.7-0.4c0.7-0.5,1.2-1.1,1.5-1.9c0.6-1.1,1.1-2.3,1.9-3.3c0.5-0.7,1.2-1.3,2.2-1
		c1,0.3,1.2,1.1,1.2,2.1c0,1.5,0,3,0,4.6C211.6,26.8,211.7,26.8,211.8,26.9z M105,29.4c1.8,0,4.6-3.9,4.2-5.8
		c-0.7-3.6-0.5-7.3-0.1-10.9c0.1-0.7,0.6-1.7-0.7-1.7c-1.1,0.1-2.7-0.9-3,1.1c-0.7,4.3-1.7,8.4-3.5,12.4
		C101,26.3,103.2,29.5,105,29.4z M111,22.3c1.4-3.3,2.1-6.4,2.4-9.6c0.1-0.8,0.3-1.7-0.9-1.9c-1.2-0.2-1.7,0.5-1.8,1.6
		c-0.1,2-0.3,3.9-0.3,5.9C110.4,19.5,110.1,20.7,111,22.3z M100.9,22.1c1.6-3.3,2.6-6.7,2.7-10.3c0-0.6-0.3-1-1-1.1
		c-0.8-0.1-1.4,0.2-1.6,1C100.2,15.2,100.6,18.7,100.9,22.1z M171.7,21.9c1.5-3,1.9-6.2,2.2-9.4c0.1-0.7,0.2-1.6-0.9-1.7
		c-1.1-0.1-1.4,0.6-1.5,1.5c-0.3,2.7-0.6,5.3-0.4,8C171.1,20.8,171,21.5,171.7,21.9z M90.6,25.4c0.1,0.4-0.4,1.2,0.4,1.4
		c0.6,0.2,1.1-0.4,1.5-0.9c0.4-0.5,0.7-1.1,0.9-1.7c0.2-0.7,0.2-1.5-0.6-1.8c-0.8-0.3-1.3,0.1-1.7,0.8
		C90.7,23.9,90.5,24.6,90.6,25.4z M200.8,25.1c-0.4-0.8,0.1-2-1.1-2.4c-0.5-0.2-0.7,0.4-0.7,0.8c0.1,0.9,0.3,2,1.3,2.4
		C200.7,26,200.8,25.5,200.8,25.1z M70.3,24.8c-0.1-0.9-0.1-1.8-1.1-2.1c-0.4-0.1-0.5,0.5-0.5,0.8c0.1,0.9,0.1,2,1.2,2.3
		C70.4,26,70.2,25.2,70.3,24.8z M103.4,8.5c0-0.4-0.3-0.7-0.7-0.7c-0.5,0.1-0.8,0.4-0.7,0.9c0,0.5,0.4,0.6,0.8,0.5
		C103.2,9.2,103.4,9,103.4,8.5z M173.8,8.5c-0.1-0.4-0.3-0.7-0.7-0.7c-0.5,0.1-0.7,0.5-0.8,0.9c-0.1,0.6,0.3,0.6,0.7,0.6
		C173.5,9.3,173.8,9.1,173.8,8.5z M113.2,8.6c0-0.4-0.1-0.8-0.6-0.7c-0.4,0-0.7,0.3-0.7,0.7c-0.1,0.5,0.2,0.7,0.7,0.7
		C113,9.3,113.2,9,113.2,8.6z M76.4,20.7c0.3-0.1,0.4-0.2,0.4-0.5c0-0.2-0.1-0.4-0.4-0.4c-0.3,0-0.5,0.2-0.4,0.5
		C76,20.6,76.1,20.7,76.4,20.7z"/>
	<path class="st0" d="M36.8,29.5c5.5,0.2,9.6-2.5,13.2-6.3c0.8-0.8,1.5-1.8,2.2-2.7c1.6-2,2.9-4.2,3.1-6.9c0-0.3,0-0.6,0.1-0.8
		c0.3-0.8,0.7-1.7,1.6-1.6c0.9,0.1,1.2,1.1,1.1,2c-0.1,0.8-0.3,1.6-0.7,2.4c-1.5,3.2-0.7,6.5-0.5,9.8c0.1,1,0.7,1,1.5,0.8
		c0.5-0.2,1.3-0.4,1.6,0.3c0.3,0.7-0.4,1.1-1,1.2c-1.8,0.4-1.8,1.6-1.7,3.1c0.3,3.7,0.2,7.4-1.2,11c-0.7,1.8-1.8,3.4-3.6,4.3
		c-2.1,1-4.3,1-6.1-0.7c-1.8-1.6-1.9-3.7-1.4-5.9c1-4.6,4.3-7.4,7.6-10.2c0.2-0.2,0.5-0.4,0.8-0.6c1.9-0.9,2.4-2.4,1.8-4.3
		c-0.2-0.6-0.1-1.2-0.2-1.8c0-0.5,0-1.1-0.5-1.3c-0.6-0.2-0.8,0.5-1.1,0.8c-2.1,2.8-4.7,5.2-7.8,6.9c-3.2,1.8-6.5,2.8-10.2,2.5
		c-5.2-0.4-8.7-4.4-8.9-9.8c-0.2-4.4,1.4-8.2,3.8-11.8C33.4,5.2,38,2,43.5,0.7c4.6-1.1,9.4-1.2,13.4,2.2c2.3,1.9,3.8,4.3,4,7.4
		c0,0.6,0.1,1.3-0.7,1.4c-0.8,0.1-1-0.6-1.2-1.1c-0.3-0.9-0.3-1.8-0.7-2.7c-1.6-3.8-4.6-5.4-8.4-5.8c-9.6-1-18.6,6.3-21,14.7
		c-0.8,2.7-0.9,5.4-0.1,8.1C29.7,27.4,31.8,29.9,36.8,29.5z M55.8,32.9c-0.1-0.6-0.1-1.1-0.2-1.6c-0.3-1.7-0.5-1.8-1.8-0.8
		c-1.1,0.8-2.2,1.7-3.1,2.6c-2.1,2-3.7,4.4-4.3,7.4c-0.3,1.5-0.1,3,1.4,3.9c1.3,0.8,2.8,0.6,4.2-0.2c1-0.6,1.6-1.4,2.2-2.4
		C55.7,39,55.3,35.8,55.8,32.9z"/>
	<path class="st0" d="M11.4,31.8c0.2,0,0.7,0,1.1,0c0.6,0,1.3-0.2,1.4,0.7c0.1,0.8-0.6,1-1.2,1.1c-2.5,0.3-4.9,0.2-7.2-1
		c-6-3.3-6.6-9.3-4.2-14.6c2.2-4.9,6.5-7.1,11.7-6.8c6.3,0.3,10.7,4.4,9.9,11c-0.2,2-1,3.8-2.8,5c-1.7,1.1-3.5,1.1-4.9-0.3
		c-0.8-0.8-1.4-1-2.4-0.2c-1.7,1.3-3.2,1.5-4.5,0.5c-1.5-1.1-1.9-2.7-1.5-4.5c0.7-3.1,2.5-5,5.3-5.5c1.2-0.2,2.3,0,3.3,0.7
		c0.4,0.3,0.9,0.7,0.6,1.4c-0.3,0.5-0.9,0.4-1.3,0.3c-3.4-0.9-5.4,0.4-6,3.8c-0.2,1.1,0.1,2,1.2,2.5c1.1,0.5,2.1,0,2.6-1.1
		c0.4-0.8,0.7-1.7,1-2.6c0.2-0.5,0.3-1,0.9-1c0.7,0,0.8,0.6,1,1.1c0.1,0.3,0.1,0.7,0.1,1c0.3,1.4,0.5,2.8,2.3,2.9
		c1.2,0.1,2.7-1.4,3-2.9c0.6-3.1,0.5-6.1-2.2-8.2c-2.6-2-5.5-2.7-8.9-1.7c-4,1.2-6.2,3.7-7.3,7.6C0.6,26.7,5,32.4,11.4,31.8z"/>
	<path class="st0" d="M122.9,14.7c-0.1,1-0.5,1.8-1.8,1.9c-1.4,0-2-0.7-2.1-2c0-1.3,0.9-2,2.1-2.1C122.4,12.4,122.8,13.3,122.9,14.7
		z"/>
</g>
</svg>
