<?xml version="1.0" encoding="utf-8"?>
<!-- Generator: Adobe Illustrator 22.0.0, SVG Export Plug-In . SVG Version: 6.00 Build 0)  -->
<svg version="1.1" id="Layer_1" xmlns="http://www.w3.org/2000/svg" xmlns:xlink="http://www.w3.org/1999/xlink" x="0px" y="0px"
	 viewBox="0 0 48 48" style="enable-background:new 0 0 48 48;" xml:space="preserve">
<style type="text/css">
	.st0{fill:#333333;}
	.st1{fill:none;stroke:#333333;stroke-width:2;}
	.st2{fill:none;stroke:#333333;stroke-width:2;stroke-linejoin:round;}
</style>
<path class="st0" d="M12.9,7.8c2.9-3,6.9-4.6,11.1-4.6s8.1,1.7,11.1,4.6c2.9,3,4.6,7,4.6,11.1c0,7.2-4,13.7-8.2,18.5
	c-2.1,2.4-4.1,4.3-5.7,5.6c-0.7,0.6-1.4,1.1-1.8,1.5c-0.4-0.3-1.1-0.8-1.8-1.5c-1.6-1.3-3.6-3.3-5.7-5.6c-4.2-4.8-8.2-11.3-8.2-18.5
	C8.4,14.7,10,10.7,12.9,7.8z M23.2,47.2c0,0,0,0,0.8-1.1c0.8,1.1,0.8,1.1,0.8,1.1C24.3,47.5,23.7,47.5,23.2,47.2z M23.2,47.2
	l0.8-1.1l0.8,1.1l0,0l0,0l0,0c0,0,0.1-0.1,0.2-0.1c0.1-0.1,0.3-0.2,0.6-0.4c0.5-0.4,1.2-0.9,2-1.6c1.6-1.4,3.8-3.4,6-5.9
	c4.3-5,8.8-12.1,8.8-20.2c0-4.9-1.9-9.5-5.3-13C33.5,2.5,28.8,0.5,24,0.5s-9.5,1.9-12.9,5.4c-3.4,3.4-5.3,8.1-5.3,13
	c0,8.1,4.5,15.3,8.8,20.2c2.2,2.5,4.3,4.5,6,5.9c0.8,0.7,1.5,1.2,2,1.6c0.2,0.2,0.4,0.3,0.6,0.4C23.1,47.1,23.2,47.2,23.2,47.2
	L23.2,47.2L23.2,47.2L23.2,47.2z"/>
<path class="st1" d="M36,28.9v3.2H11.6v-3.2c0-1,0.8-2.1,2.2-3.2c1.3-1,3.1-1.8,4.9-2.2c0,0,0,0,0,0c0,0,0,0.1,0.1,0.1l0,0
	c0,0,0,0.1,0.1,0.1l0.2,0.4h0.4h2.9h0c0.7,0,1,0,1.3,0c0.3,0,0.6,0,1.3,0c0,0,0,0,0,0h2.9h0.4l0.2-0.4c0.1-0.1,0.1-0.2,0.2-0.3
	c0,0,0,0,0,0c1.8,0.4,3.6,1.2,5,2.2C35.2,26.8,36,27.9,36,28.9z M18.6,23.4C18.6,23.4,18.6,23.4,18.6,23.4
	C18.6,23.4,18.6,23.4,18.6,23.4z"/>
<path class="st0" d="M18,29.2c0.4,0,0.7-0.3,0.7-0.7c0-0.4-0.3-0.7-0.7-0.7s-0.7,0.3-0.7,0.7C17.3,28.9,17.6,29.2,18,29.2z M18,30.7
	c1.2,0,2.2-1,2.2-2.2c0-1.2-1-2.2-2.2-2.2s-2.2,1-2.2,2.2C15.9,29.7,16.8,30.7,18,30.7z"/>
<path class="st2" d="M29.5,29.9h-1.4v-1.4l0.7-1.4h2.9l0.7,1.4v1.4H31"/>
<path class="st1" d="M30.2,27.1c0.4-0.5,0.7-2.5,0.4-3.2"/>
<path class="st1" d="M17.8,27.1c-0.4-0.5-0.7-2.5-0.4-3.2"/>
<path class="st2" d="M15.9,17.4c0,3.2,5.7,4,5.7,4s-3.8-6.1-1.8-7.2c2-1.1,6.8-2.9,7.2-2.2c3.6,5.2-0.7,9.3-0.7,9.3s5.3-0.5,5.3-4
	c0-3.5-2.5-7.5-2.5-7.5s-1.8-2.2-5.3-2.2c-3.5,0-4.8,2.2-4.8,2.2S15.9,14.2,15.9,17.4z"/>
</svg>
