<?xml version="1.0" encoding="utf-8"?>
<!-- Generator: Adobe Illustrator 22.0.0, SVG Export Plug-In . SVG Version: 6.00 Build 0)  -->
<svg version="1.1" id="Layer_1" xmlns="http://www.w3.org/2000/svg" xmlns:xlink="http://www.w3.org/1999/xlink" x="0px" y="0px"
	 viewBox="0 0 48 48" style="enable-background:new 0 0 48 48;" xml:space="preserve">
<style type="text/css">
	.st0{fill:#333333;}
</style>
<path class="st0" d="M20,7.1c0-0.5,0-1.1,0.2-1.5c0.2-0.5,0.5-0.9,0.8-1.3c0.4-0.4,0.8-0.7,1.3-0.9C22.9,3.1,23.5,3,24,3
	s1.1,0.1,1.6,0.3c0.5,0.2,1,0.5,1.3,0.9s0.7,0.8,0.8,1.3C28,6,28,6.6,28,7.1c0,1-0.4,2-1.2,2.7C26.1,10.6,25.1,11,24,11
	c-1.1,0-2.1-0.4-2.8-1.2C20.4,9.1,20,8.1,20,7.1z M24,9c0.6,0,1.1-0.2,1.4-0.6C25.8,8,26,7.6,26,7.1L26,7L26,7c0-0.2,0-0.5-0.1-0.7
	c-0.1-0.2-0.2-0.4-0.4-0.6c-0.2-0.2-0.4-0.3-0.7-0.4C24.6,5.1,24.3,5,24,5s-0.6,0.1-0.8,0.2c-0.3,0.1-0.5,0.3-0.7,0.4
	c-0.2,0.2-0.3,0.4-0.4,0.6C22,6.5,22,6.7,22,7L22,7l0,0.1c0,0.5,0.2,0.9,0.6,1.3C22.9,8.8,23.5,9,24,9z"/>
<path class="st0" d="M22.6,10.9c-1.2-0.7-2.6-1-4-0.7l0,0l0,0c-1.1,0.3-2,1.1-2.5,1.8c-0.3,0.4-0.6,0.8-0.8,1.2
	c-0.1,0.1-0.1,0.2-0.2,0.3l0,0h0v0c-0.2,0.2-0.3,0.5-0.4,0.7L11.9,18l0,0l0,0c-0.3,0.5-0.5,1.1-0.4,1.7c0.1,0.6,0.4,1.1,0.8,1.5h0
	l0,0l4.9,4.1l0,0l0,0c0.2,0.2,0.5,0.3,0.8,0.4c-0.5,1.5-1.3,4-2.2,6.5c-0.7,2-1.4,4-1.8,5.4c-0.3,1-0.6,1.7-0.6,1.7l-0.4,1.3h1.3
	h4.4l0.1,3c0,0.6,0.3,1.2,0.7,1.7c0.4,0.5,1,0.7,1.7,0.7c0.6,0,1.2-0.3,1.7-0.7c0.4-0.4,0.7-1,0.7-1.7l0.2-2.9h3.9h1v-1
	c0-0.1-0.1-1.1-0.1-2.2l0,0v0c0-0.5-0.1-1.1-0.1-1.7c-0.1-0.9-0.1-1.9-0.2-2.6c0-0.8-0.1-1.3-0.1-1.4c0,0,0-0.1,0.2-0.3
	c0.1-0.1,0.2-0.2,0.4-0.3l0,0c0.1-0.1,0.3-0.2,0.4-0.4l0,0l0,0c0.6-0.7,1.2-1.4,1.6-2.2l0,0l0,0c0.3-0.8,0.5-1.6,0.6-2.4l0,0l0,0
	c0-1.6-0.5-3.2-1.3-4.7l-0.3-0.5l0,0c-1-2-1.9-3.3-3.2-5c-1.1-1.8-2.5-3.4-4.1-4.7L22.6,10.9L22.6,10.9z M17.6,13.3
	c0.5-0.6,0.9-1,1.4-1.1c0.9-0.2,1.7,0,2.5,0.4c1.4,1.2,2.7,2.6,3.6,4.1l0,0.1l0,0c1.3,1.7,2.1,2.9,3,4.7l0,0l0,0l0.3,0.6l0,0l0,0
	c0.6,1.1,1,2.4,1,3.7c0,0.6-0.2,1.2-0.4,1.7c-0.3,0.6-0.7,1.2-1.2,1.7c-0.1,0.1-0.2,0.2-0.3,0.3l0,0h0l0,0c-0.1,0.1-0.3,0.3-0.5,0.5
	c-0.3,0.3-0.8,0.9-0.8,1.6c0,0.3,0,0.9,0.1,1.6c0,0.8,0.1,1.7,0.2,2.6c0,0.6,0.1,1.3,0.1,1.8l0,0v0l0,0.7l0,0.2h-3.8H22l-0.1,0.9
	l-0.2,3.9l0,0v0c0,0.1,0,0.2-0.1,0.3C21.5,44,21.4,44,21.3,44c-0.1,0-0.2,0-0.3-0.1C21,43.8,21,43.7,21,43.6v0l0,0l-0.2-4l0-1h-1h-4
	l0.3-0.9c0.5-1.3,1.1-3.1,1.7-4.8c1-3,2.1-6.2,2.5-7.5c0,0,0,0,0,0c0.2-0.6,0.4-1.7,0.4-2.8c0-1.4-0.2-2.7-0.6-4
	c-0.1-0.4-0.2-0.8-0.3-1.2c-0.1-0.5-0.2-1-0.3-1.6l-0.4-2l-1.3,1.5L15,18.6l-0.7,0.8l0.8,0.6l3.8,3.1c0.1,0.1,0.2,0.2,0.2,0.3
	c0,0.2-0.1,0.3-0.2,0.3c0,0,0,0,0,0c0,0,0,0-0.1,0c0,0,0,0,0,0c-0.1,0-0.2-0.1-0.3-0.1l-4.9-4c-0.1-0.1-0.1-0.2-0.1-0.3
	c0-0.1,0-0.2,0.1-0.3l2.7-3.8l0,0l0,0c0.2-0.2,0.3-0.5,0.5-0.8l0,0l0,0c0.1-0.1,0.1-0.2,0.2-0.3C17.2,13.9,17.4,13.6,17.6,13.3z
	 M18.2,19c0.1,0.4,0.2,0.9,0.3,1.3l-1.4-1.1l0.9-1.1C18.1,18.4,18.2,18.7,18.2,19L18.2,19L18.2,19z"/>
<path class="st0" d="M32.7,13.9c3.3,1.4,4.8,5.2,3.4,8.4l1.8,0.8c1.8-4.3-0.2-9.2-4.5-11.1L32.7,13.9z"/>
<path class="st0" d="M31.6,16.6c1.8,0.7,2.6,2.8,1.8,4.5l1.8,0.8c1.2-2.8-0.1-6-2.9-7.1L31.6,16.6z"/>
<path class="st0" d="M36.1,29.3c1.2,3.4-0.6,7-4,8.2l0.7,1.9c4.4-1.5,6.7-6.3,5.2-10.7L36.1,29.3z"/>
<path class="st0" d="M33.3,30.3c0.6,1.8-0.3,3.8-2.1,4.4l0.7,1.9c2.8-1,4.3-4.1,3.4-6.9L33.3,30.3z"/>
</svg>
