<?xml version="1.0" encoding="utf-8"?>
<!-- Generator: Adobe Illustrator 22.0.0, SVG Export Plug-In . SVG Version: 6.00 Build 0)  -->
<svg version="1.1" id="Layer_1" xmlns="http://www.w3.org/2000/svg" xmlns:xlink="http://www.w3.org/1999/xlink" x="0px" y="0px"
	 viewBox="0 0 48 48" style="enable-background:new 0 0 48 48;" xml:space="preserve">
<style type="text/css">
	.st0{fill:none;stroke:#333333;stroke-miterlimit:10;}
	.st1{fill:#333333;}
</style>
<path class="st0" d="M8,40.7c2.2,1.1,4.8,0.2,5.9-1.9l1.4-2.7v0.2L12,44.6c1.7-0.2,23.6,0.2,24.6,0.4l-3.8-8.8v-0.1l1.4,2.7
	c1.1,2.2,3.7,3,5.9,1.9s3-3.7,1.9-5.9l-5.6-11c-1.1-2.2-3.3-3.5-5.7-3.5h-3.1c2.3-1.3,3.9-3.7,3.9-6.6c0-4.1-3.3-7.5-7.5-7.5
	s-7.5,3.3-7.5,7.5c0,2.8,1.6,5.3,3.9,6.6h-3.1c-2.4,0-4.6,1.4-5.7,3.5L6,34.8C4.9,36.9,5.8,39.6,8,40.7z"/>
<path class="st1" d="M35.3,25.3c-1.4-1.4-3.7-1.4-5.1,0c-1.4,1.4-1.4,3.7,0,5.1c1.4,1.4,3.7,1.4,5.1,0C36.7,29,36.7,26.7,35.3,25.3z
	"/>
<path class="st1" d="M33.2,34.8c0.2-0.6,0.1-1.2-0.2-1.7c-0.4-0.5-1-0.8-1.6-0.7l-2.6,0.2L27.9,29c-0.2-1-1.2-1.5-2.2-1.3
	c-0.4,0.1-0.8,0.4-1,0.7c0.1,0.7,1,6.6,1,6.6c0.2,0.8,1,1.4,1.9,1.3l0.4,0c-0.8,0.7-1.8,1.4-3.1,1.9l-3-4.4c-0.3-0.1-0.6-0.1-0.9,0
	L15.9,35c-1,0.2-1.5,1.2-1.3,2.2c0.2,1,1.2,1.5,2.2,1.3l3.3-0.8l0.8,3.3c0.2,0.6,0.6,1.1,1.2,1.3c1.5-0.1,3-0.4,4.4-0.9
	C30.6,39.7,32.6,36.4,33.2,34.8z"/>
</svg>
