<?xml version="1.0" encoding="utf-8"?>
<!-- Generator: Adobe Illustrator 22.0.0, SVG Export Plug-In . SVG Version: 6.00 Build 0)  -->
<svg version="1.1" id="Layer_1" xmlns="http://www.w3.org/2000/svg" xmlns:xlink="http://www.w3.org/1999/xlink" x="0px" y="0px"
	 viewBox="0 0 48 48" style="enable-background:new 0 0 48 48;" xml:space="preserve">
<style type="text/css">
	.st0{fill:#333333;}
</style>
<path class="st0" d="M36.8,5.4h2.1c3.5,8.7,5.2,15.7,5.2,22.1c0,6.2-1.7,11.9-5,18h-2.2c3.6-6.3,5.3-11.8,5.3-18
	C42.2,21.3,40.5,14.4,36.8,5.4z"/>
<path class="st0" d="M9.3,5.4h2.1C7.8,14.4,6,21.3,6,27.5c0,6.1,1.8,11.7,5.3,18H9.1c-3.3-6.1-5-11.7-5-18
	C4.1,21.1,5.9,14.1,9.3,5.4z"/>
<path class="st0" d="M23.2,33.8v11.6h1.9V33.8l7.8-8.2l-1.3-1.4L24.1,32l-7.4-7.8l-1.3,1.4L23.2,33.8z"/>
</svg>
