<?xml version="1.0" encoding="utf-8"?>
<!-- Generator: Adobe Illustrator 22.0.0, SVG Export Plug-In . SVG Version: 6.00 Build 0)  -->
<svg version="1.1" id="Layer_1" xmlns="http://www.w3.org/2000/svg" xmlns:xlink="http://www.w3.org/1999/xlink" x="0px" y="0px"
	 viewBox="0 0 33.1 27.7" style="enable-background:new 0 0 33.1 27.7;" xml:space="preserve">
<style type="text/css">
	.st0{fill:#464646;}
</style>
<g>
	<path class="st0" d="M11.7,1.9c-1,0.8-2,1.6-3,2.6c-1,0.9-2,1.9-2.8,3.1C4.9,8.6,4.2,9.8,3.7,11c-0.6,1.2-0.8,2.5-0.8,3.9
		c0,1.3,0.2,2.4,0.6,3.2c0.4,0.8,0.7,1.3,0.9,1.7c0.4-0.5,0.9-1,1.6-1.6s1.6-0.9,2.7-0.9c1.4,0,2.7,0.5,3.6,1.4
		c1,0.9,1.5,2.1,1.5,3.7c0,1.3-0.5,2.5-1.6,3.6c-1,1.1-2.4,1.7-4.1,1.7c-1.7,0-3.1-0.4-4.1-1.1C3,25.9,2.1,25,1.6,24
		c-0.6-1-1-2.1-1.2-3.1c-0.2-1.1-0.3-1.9-0.3-2.6c0-2.1,0.4-4,1.1-5.8C2,10.6,2.9,9,4,7.5c1.1-1.5,2.3-2.8,3.5-3.9
		c1.2-1.1,2.4-2,3.3-2.7L11.7,1.9z M29.9,1.9c-1,0.8-2,1.6-3,2.6c-1,0.9-2,1.9-2.8,3.1c-0.9,1.1-1.6,2.3-2.2,3.5
		c-0.6,1.2-0.8,2.5-0.8,3.9c0,1.3,0.2,2.4,0.6,3.2c0.4,0.8,0.7,1.3,0.9,1.7c0.4-0.5,0.9-1,1.6-1.6c0.7-0.6,1.6-0.9,2.7-0.9
		c1.4,0,2.7,0.5,3.6,1.4c1,0.9,1.5,2.1,1.5,3.7c0,1.3-0.5,2.5-1.6,3.6c-1,1.1-2.4,1.7-4.1,1.7c-1.7,0-3.1-0.4-4.1-1.1
		c-1-0.7-1.9-1.6-2.5-2.6c-0.6-1-1-2.1-1.2-3.1c-0.2-1.1-0.3-1.9-0.3-2.6c0-2.1,0.4-4,1.1-5.8c0.8-1.8,1.7-3.4,2.8-4.9
		c1.1-1.5,2.3-2.8,3.5-3.9c1.2-1.1,2.4-2,3.3-2.7L29.9,1.9z"/>
</g>
</svg>
