<?xml version="1.0" encoding="utf-8"?>
<!-- Generator: Adobe Illustrator 22.0.0, SVG Export Plug-In . SVG Version: 6.00 Build 0)  -->
<svg version="1.1" id="Layer_1" xmlns="http://www.w3.org/2000/svg" xmlns:xlink="http://www.w3.org/1999/xlink" x="0px" y="0px"
	 viewBox="0 0 33.1 27.7" style="enable-background:new 0 0 33.1 27.7;" xml:space="preserve">
<style type="text/css">
	.st0{fill:#464646;}
</style>
<g>
	<path class="st0" d="M20.5,26.7c1-0.8,2-1.6,3-2.6c1-0.9,2-1.9,2.8-3.1c0.9-1.1,1.6-2.3,2.2-3.5c0.6-1.2,0.8-2.5,0.8-3.9
		c0-1.3-0.2-2.4-0.6-3.2c-0.4-0.8-0.7-1.3-0.9-1.7c-0.4,0.5-0.9,1-1.6,1.6c-0.7,0.6-1.6,0.9-2.7,0.9c-1.4,0-2.7-0.5-3.6-1.4
		c-1-0.9-1.5-2.1-1.5-3.7c0-1.3,0.5-2.5,1.6-3.6c1-1.1,2.4-1.7,4.1-1.7c1.7,0,3.1,0.4,4.1,1.1c1,0.7,1.9,1.6,2.5,2.6
		c0.6,1,1,2.1,1.2,3.1c0.2,1.1,0.3,1.9,0.3,2.6c0,2.1-0.4,4-1.1,5.8c-0.8,1.8-1.7,3.4-2.8,4.9c-1.1,1.5-2.3,2.8-3.5,3.9
		c-1.2,1.1-2.4,2-3.3,2.7L20.5,26.7z M2.2,26.7c1-0.8,2-1.6,3-2.6c1-0.9,2-1.9,2.8-3.1c0.9-1.1,1.6-2.3,2.2-3.5
		c0.6-1.2,0.8-2.5,0.8-3.9c0-1.3-0.2-2.4-0.6-3.2C10,9.8,9.7,9.2,9.5,8.9c-0.4,0.5-0.9,1-1.6,1.6c-0.7,0.6-1.6,0.9-2.7,0.9
		c-1.4,0-2.7-0.5-3.6-1.4C0.6,9,0.1,7.8,0.1,6.3c0-1.3,0.5-2.5,1.6-3.6c1-1.1,2.4-1.7,4.1-1.7c1.7,0,3.1,0.4,4.1,1.1
		c1,0.7,1.9,1.6,2.5,2.6c0.6,1,1,2.1,1.2,3.1c0.2,1.1,0.3,1.9,0.3,2.6c0,2.1-0.4,4-1.1,5.8c-0.8,1.8-1.7,3.4-2.8,4.9
		c-1.1,1.5-2.3,2.8-3.5,3.9C5.1,26.1,4,27,3,27.7L2.2,26.7z"/>
</g>
</svg>
