<?xml version="1.0" encoding="utf-8"?>
<!-- Generator: Adobe Illustrator 22.0.0, SVG Export Plug-In . SVG Version: 6.00 Build 0)  -->
<svg version="1.1" id="Layer_1" xmlns="http://www.w3.org/2000/svg" xmlns:xlink="http://www.w3.org/1999/xlink" x="0px" y="0px"
	 viewBox="0 0 48 48" style="enable-background:new 0 0 48 48;" xml:space="preserve">
<style type="text/css">
	.st0{fill:#333333;}
	.st1{fill:none;stroke:#333333;stroke-width:2;stroke-miterlimit:10;}
</style>
<path class="st0" d="M35,17.9c-2.2,0-4,1.8-4,4s1.8,4,4,4s4-1.8,4-4S37.2,17.9,35,17.9z M29,21.9c0-3.3,2.7-6,6-6s6,2.7,6,6
	s-2.7,6-6,6S29,25.2,29,21.9z"/>
<path class="st1" d="M35,29.8c-2.1,0-6.3,1.7-6.3,4.9V40h12.6v-5.3C41.3,31.4,37.1,29.8,35,29.8z"/>
<path class="st0" d="M15,39v-7h-2v9h14v-2H15z"/>
<path class="st0" d="M14,29.6l5.7,5.7l-1.4,1.4L14,32.4l-4.3,4.3l-1.4-1.4L14,29.6z"/>
<path class="st1" d="M13.2,5.5c0.5-0.3,1.1-0.3,1.5,0L23,11c0.4,0.3,0.6,0.7,0.6,1.2v11.1c0,0.8-0.6,1.4-1.4,1.4H5.7
	c-0.8,0-1.4-0.6-1.4-1.4V12.2c0-0.5,0.2-0.9,0.6-1.2L13.2,5.5z M12.6,21.9h2.8v-5.5h-2.8V21.9z"/>
</svg>
