<?xml version="1.0" encoding="utf-8"?>
<!-- Generator: Adobe Illustrator 22.0.0, SVG Export Plug-In . SVG Version: 6.00 Build 0)  -->
<svg version="1.1" id="Calque_1" xmlns="http://www.w3.org/2000/svg" xmlns:xlink="http://www.w3.org/1999/xlink" x="0px" y="0px"
	 viewBox="0 0 260 260" style="enable-background:new 0 0 260 260;" xml:space="preserve">
<style type="text/css">
	.st0{fill:#D1A3B6;stroke:#D1A3B6;stroke-width:8;stroke-miterlimit:10;}
</style>
<g id="Y4ArO6_1_">
	<path class="st0" d="M89.2,160c28.3,1.3,49.3-12.8,67.7-32.2c4-4.3,7.5-9.1,11.2-13.7c8.4-10.4,15-21.6,15.8-35.4
		c0.1-1.4,0.1-2.9,0.5-4.2c1.3-4.2,3.9-8.6,8.3-8.1c4.8,0.6,6.1,5.6,5.5,10c-0.6,4.1-1.6,8.4-3.4,12.1c-8,16.5-3.6,33.5-2.4,50.4
		c0.4,5.1,3.7,5.4,8,3.9c2.8-0.9,6.7-2.2,8.1,1.6c1.3,3.7-2.1,5.7-5.1,6.4c-9.4,2-9.3,8.3-8.7,16c1.5,19.1,1,38.2-6.4,56.4
		c-3.8,9.4-9.3,17.6-18.6,22c-11,5.2-22.2,5.1-31.6-3.4c-9.2-8.2-9.6-19.1-7.2-30.4c4.9-23.4,22-37.8,39-52.3
		c1.3-1.1,2.7-2.1,4.2-2.9c9.6-4.8,12.1-12.3,9.2-22.3c-0.9-2.9-0.5-6.1-0.8-9.2c-0.2-2.5,0-5.7-2.6-6.6c-3-1.1-4.2,2.3-5.6,4.2
		c-11,14.6-24.3,26.5-40.1,35.5c-16.2,9.2-33.6,14.3-52.4,12.8c-26.6-2.2-44.8-22.5-45.9-50.3C34.6,97.6,42.8,77.9,55,59.7
		C71.7,34.9,95.3,18.2,124,11.5c23.7-5.6,48.4-6,69.1,11.1c11.9,9.8,19.6,22.3,20.7,38.1c0.2,3,0.7,6.7-3.8,7.2
		c-4,0.4-5.3-2.9-6.3-5.7c-1.6-4.4-1.5-9.2-3.4-13.8c-8.2-19.5-23.5-27.6-43.4-29.6c-49.2-5.1-95.5,32.4-108.2,75.7
		c-4,13.7-4.7,27.9-0.3,41.6C52.7,149.1,63.5,161.9,89.2,160z M187.3,177.5c-0.4-3.1-0.5-5.6-0.9-8.1c-1.5-9-2.5-9.4-9.4-3.9
		c-5.5,4.4-11.1,8.6-16.2,13.4c-11,10.4-19.2,22.6-22,37.8c-1.5,8-0.3,15.7,7.1,20.1c6.9,4.2,14.5,3.2,21.6-0.8
		c5.1-2.8,8.3-7.3,11.1-12.3C186.5,209,184.6,192.5,187.3,177.5z"/>
</g>
</svg>
